<svg width="200" height="46" viewBox="0 0 200 46" fill="none" xmlns="http://www.w3.org/2000/svg">
<g clip-path="url(#clip0_6171_16107)">
<path d="M136.604 41.5678C141.977 42.0814 147.35 42.6155 152.724 43.047C167.161 44.1769 182.051 47.0944 195.582 38.7532C200.502 35.7126 197.928 25.1936 192.895 25.358C192.07 25.3786 191.26 25.4197 190.435 25.4403C191.293 21.7627 190.095 17.1402 186.89 16.0308C189.545 16.0924 192.199 16.1335 194.853 16.1952C201.716 16.38 201.716 2.0192 194.853 1.8343C131.635 0.0880007 68.4169 1.40295 5.26338 5.77897C-0.401317 6.16935 -2.39207 18.455 3.83912 19.8932C13.5662 22.1326 23.2934 24.2281 33.0528 26.2004C31.9684 27.2893 31.2887 28.8712 31.0297 30.5559C30.4147 30.6175 29.8159 30.6585 29.2008 30.7201C22.4517 31.4598 22.2413 45.307 29.2008 45.081C65.002 43.91 100.803 42.7389 136.62 41.5678H136.604Z" fill="#1BB6F9"/>
</g>
<defs>
<clipPath id="clip0_6171_16107">
<rect width="200" height="44.5013" fill="white" transform="translate(0 0.904297)"/>
</clipPath>
</defs>
</svg>
