<svg width="199" height="47" viewBox="0 0 199 47" fill="none" xmlns="http://www.w3.org/2000/svg">
<g clip-path="url(#clip0_87_2)">
<path d="M77.14 16.67C78.94 18.62 79.83 21.31 79.83 24.72V39.72H71.99V25.72C72.0803 24.2649 71.6036 22.8313 70.66 21.72C69.6859 20.8023 68.3982 20.2913 67.06 20.2913C65.7218 20.2913 64.434 20.8023 63.46 21.72C62.5137 22.8303 62.0335 24.2636 62.12 25.72V39.72H54.23V14.02H62.08V17.43C62.9077 16.2683 64.0199 15.3386 65.31 14.73C66.7363 14.0502 68.3001 13.708 69.88 13.73C71.2307 13.6666 72.579 13.8965 73.8323 14.4041C75.0856 14.9116 76.214 15.6846 77.14 16.67Z" fill="white"/>
<path d="M109.08 28.78H91.2601C91.2901 30.1562 91.8446 31.4689 92.8101 32.45C93.7157 33.2919 94.9139 33.7475 96.1501 33.72C97.0102 33.7833 97.8686 33.5764 98.6054 33.1282C99.3423 32.68 99.9208 32.0129 100.26 31.22H108.65C108.232 32.8989 107.438 34.4613 106.33 35.79C105.183 37.1612 103.736 38.2494 102.1 38.97C100.316 39.7614 98.3817 40.1571 96.4301 40.13C94.0852 40.1736 91.7682 39.6159 89.7001 38.51C87.7455 37.4541 86.1402 35.8523 85.0801 33.9C83.9984 31.725 83.4355 29.329 83.4355 26.9C83.4355 24.4709 83.9984 22.0749 85.0801 19.9C86.1259 17.9447 87.7216 16.3385 89.6701 15.28C91.7583 14.1804 94.0905 13.6266 96.4501 13.67C98.7604 13.6245 101.045 14.1647 103.09 15.24C105.006 16.2598 106.586 17.8123 107.64 19.71C108.763 21.7901 109.325 24.1268 109.27 26.49C109.249 27.2563 109.186 28.0208 109.08 28.78ZM101.14 24.4C101.167 23.7925 101.057 23.1868 100.818 22.6276C100.58 22.0684 100.218 21.5703 99.7601 21.17C98.7951 20.3554 97.5622 19.9278 96.3001 19.97C95.0805 19.9317 93.889 20.3407 92.9501 21.12C92.0031 21.9675 91.4045 23.1363 91.2701 24.4H101.14Z" fill="white"/>
<path d="M127.42 33.07V39.76H123.42C121.007 39.91 118.624 39.162 116.73 37.66C115.13 36.26 114.33 33.9766 114.33 30.81V20.57H111.18V14.02H114.32V7.74001H122.21V14.02H127.37V20.57H122.21V30.9C122.181 31.1997 122.215 31.5023 122.309 31.7881C122.404 32.074 122.558 32.3369 122.76 32.56C123.29 32.9501 123.945 33.1317 124.6 33.07H127.42Z" fill="white"/>
<path d="M153.2 7.55998V10.97H144.44V39.71H140.24V10.97H131.43V7.55998H153.2Z" fill="white"/>
<path d="M151.18 20.18C152.16 18.2883 153.654 16.7112 155.49 15.63C157.344 14.5521 159.455 13.9958 161.6 14.02C163.617 13.9707 165.61 14.4646 167.37 15.45C168.891 16.2931 170.15 17.5386 171.01 19.05V14.43H175.26V39.71H171.01V35.01C170.123 36.54 168.842 37.804 167.3 38.67C165.554 39.6671 163.57 40.1717 161.56 40.13C159.411 40.1592 157.297 39.5817 155.461 38.4638C153.624 37.3459 152.141 35.7329 151.18 33.81C150.105 31.6962 149.566 29.3509 149.61 26.98C149.557 24.6177 150.096 22.2798 151.18 20.18ZM169.86 22.04C169.144 20.6898 168.067 19.5648 166.75 18.79C165.434 18.0552 163.952 17.6695 162.445 17.6695C160.938 17.6695 159.456 18.0552 158.14 18.79C156.824 19.5512 155.752 20.6716 155.05 22.02C154.248 23.5619 153.852 25.2827 153.9 27.02C153.855 28.773 154.251 30.5092 155.05 32.07C155.755 33.4295 156.825 34.5654 158.14 35.35C159.443 36.1052 160.925 36.4956 162.43 36.48C163.945 36.4927 165.436 36.1027 166.75 35.35C168.073 34.5692 169.151 33.4328 169.86 32.07C170.619 30.5123 171.013 28.8025 171.013 27.07C171.013 25.3375 170.619 23.6276 169.86 22.07V22.04Z" fill="white"/>
<path d="M194.19 39.71L188.19 30.3L182.42 39.71H178.08L186.25 27.17L178.08 14.43H182.83L188.83 23.8L194.55 14.43H198.93L190.81 26.93L198.98 39.71H194.19Z" fill="white"/>
<path fill-rule="evenodd" clip-rule="evenodd" d="M39.32 9.39998V40.73H29.7L18.13 25.46L15.08 21.38V40.73H5.21001V9.39998H0.0400085V46.69H45.64V9.39998H39.32ZM28.73 18.67V23.79L17.83 9.39998L15.49 6.3H0V-1.52588e-05H45.6V6.28999H28.73V18.66V18.67Z" fill="white"/>
</g>
<defs>
<clipPath id="clip0_87_2">
<rect width="198.94" height="46.69" fill="white"/>
</clipPath>
</defs>
</svg>
