<svg id="Layer_1" data-name="Layer 1" xmlns="http://www.w3.org/2000/svg" viewBox="0 0 198.94 46.69"><defs><style>.cls-1,.cls-2{fill:#2779a7;}.cls-2{fill-rule:evenodd;}</style></defs><path class="cls-1" d="M263.06,368.38c1.8,1.95,2.69,4.64,2.69,8.05v15h-7.84v-14a5.64,5.64,0,0,0-1.33-4,5.25,5.25,0,0,0-7.2,0,5.65,5.65,0,0,0-1.34,4v14h-7.89V365.73H248v3.41a8.33,8.33,0,0,1,3.23-2.7,10.29,10.29,0,0,1,4.57-1A9.36,9.36,0,0,1,263.06,368.38Z" transform="translate(-185.92 -351.71)"/><path class="cls-1" d="M295,380.49H277.18a5.4,5.4,0,0,0,1.55,3.67,4.75,4.75,0,0,0,3.34,1.27,4.14,4.14,0,0,0,4.11-2.5h8.39a11.46,11.46,0,0,1-2.32,4.57,11.62,11.62,0,0,1-4.23,3.18,13.52,13.52,0,0,1-5.67,1.16,13.73,13.73,0,0,1-6.73-1.62,11.45,11.45,0,0,1-4.62-4.61,15.72,15.72,0,0,1,0-14,11.35,11.35,0,0,1,4.59-4.62,14,14,0,0,1,6.78-1.61,13.69,13.69,0,0,1,6.64,1.57,11.25,11.25,0,0,1,4.55,4.47,13.61,13.61,0,0,1,1.63,6.78A20.64,20.64,0,0,1,295,380.49Zm-7.94-4.38a4.05,4.05,0,0,0-1.38-3.23,5.1,5.1,0,0,0-3.46-1.2,5,5,0,0,0-3.35,1.15,5.13,5.13,0,0,0-1.68,3.28Z" transform="translate(-185.92 -351.71)"/><path class="cls-1" d="M313.34,384.78v6.69h-4a9.79,9.79,0,0,1-6.69-2.1q-2.4-2.1-2.4-6.85V372.28H297.1v-6.55h3.14v-6.28h7.89v6.28h5.16v6.55h-5.16v10.33a2.16,2.16,0,0,0,.55,1.66,2.68,2.68,0,0,0,1.84.51Z" transform="translate(-185.92 -351.71)"/><path class="cls-1" d="M339.12,359.27v3.41h-8.76v28.74h-4.2V362.68h-8.81v-3.41Z" transform="translate(-185.92 -351.71)"/><path class="cls-1" d="M337.1,371.89a11.33,11.33,0,0,1,4.31-4.55,11.89,11.89,0,0,1,6.11-1.61,11.25,11.25,0,0,1,5.77,1.43,9.47,9.47,0,0,1,3.64,3.6v-4.62h4.25v25.28h-4.25v-4.7a9.88,9.88,0,0,1-3.71,3.66,11.11,11.11,0,0,1-5.74,1.46,11.43,11.43,0,0,1-10.38-6.32,14.48,14.48,0,0,1-1.57-6.83A14.13,14.13,0,0,1,337.1,371.89Zm18.68,1.86a8.26,8.26,0,0,0-3.11-3.25,8.83,8.83,0,0,0-8.61,0,8,8,0,0,0-3.09,3.23,10.23,10.23,0,0,0-1.15,5,10.49,10.49,0,0,0,1.15,5.05,8.23,8.23,0,0,0,3.09,3.28,8.38,8.38,0,0,0,4.29,1.13,8.55,8.55,0,0,0,4.32-1.13,8.21,8.21,0,0,0,3.11-3.28,11.42,11.42,0,0,0,0-10Z" transform="translate(-185.92 -351.71)"/><path class="cls-1" d="M380.11,391.42l-6-9.41-5.77,9.41H364l8.17-12.54L364,366.14h4.75l6,9.37,5.72-9.37h4.38l-8.12,12.5,8.17,12.78Z" transform="translate(-185.92 -351.71)"/><path class="cls-2" d="M225.24,361.11v31.33h-9.62l-11.57-15.27L201,373.09v19.35h-9.87V361.11h-5.17V398.4h45.6V361.11Zm-10.59,9.27v5.12l-10.9-14.39-2.34-3.1H185.92v-6.3h45.6V358H214.65v12.37Z" transform="translate(-185.92 -351.71)"/></svg>