<svg width="2250" height="540" viewBox="0 0 2250 540" fill="none" xmlns="http://www.w3.org/2000/svg">
<path d="M793.22 156C826.19 156 852.83 166.41 873.14 187.22C893.45 208.03 903.61 237.08 903.61 274.38V436.71H833.68V283.87C833.68 261.89 828.19 244.99 817.2 233.17C806.21 221.35 791.23 215.44 772.24 215.44C752.93 215.44 737.7 221.35 726.54 233.17C715.39 244.99 709.81 261.89 709.81 283.87V436.71H639.88V160H709.81V194.46C719.13 182.47 731.04 173.07 745.52 166.24C760.01 159.41 775.91 156 793.22 156Z" fill="white"/>
<path d="M1227.27 292.36C1227.27 302.35 1226.6 311.34 1225.27 319.33H1022.98C1024.65 339.31 1031.64 354.96 1043.96 366.28C1056.28 377.6 1071.43 383.26 1089.41 383.26C1115.38 383.26 1133.87 372.11 1144.85 349.8H1220.27C1212.28 376.44 1196.97 398.33 1174.32 415.48C1151.68 432.63 1123.88 441.2 1090.91 441.2C1064.27 441.2 1040.38 435.29 1019.24 423.47C998.09 411.65 981.61 394.92 969.79 373.27C957.97 351.63 952.06 326.66 952.06 298.35C952.06 269.72 957.88 244.57 969.54 222.93C981.19 201.29 997.51 184.64 1018.49 172.98C1039.46 161.33 1063.61 155.5 1090.91 155.5C1117.22 155.5 1140.77 161.16 1161.59 172.48C1182.4 183.81 1198.55 199.87 1210.04 220.68C1221.52 241.49 1227.27 265.39 1227.27 292.36ZM1154.84 272.38C1154.51 254.4 1148.02 240 1135.36 229.17C1122.71 218.35 1107.23 212.94 1088.91 212.94C1071.6 212.94 1057.03 218.19 1045.21 228.67C1033.39 239.16 1026.15 253.73 1023.48 272.38H1154.84Z" fill="white"/>
<path d="M1359.63 217.44V351.3C1359.63 360.62 1361.88 367.36 1366.37 371.53C1370.87 375.69 1378.44 377.77 1389.1 377.77H1421.56V436.71H1377.61C1318.67 436.71 1289.2 408.07 1289.2 350.8V217.44H1256.24V160H1289.2V91.5701H1359.63V160H1421.56V217.44H1359.63Z" fill="white"/>
<path d="M1522.96 193.46V362.78C1522.96 379.43 1526.12 390.92 1532.45 397.25C1538.77 403.57 1549.93 406.74 1565.91 406.74H1597.88V436.71H1560.42C1535.78 436.71 1517.46 430.96 1505.48 419.47C1493.49 407.99 1487.49 389.09 1487.49 362.78V193.46H1449.53V163.99H1487.49V95.5601H1522.96V163.99H1597.88V193.46H1522.96Z" fill="white"/>
<path d="M1639.34 299.85C1639.34 271.88 1644.91 247.32 1656.07 226.18C1667.22 205.03 1682.71 188.72 1702.52 177.23C1722.33 165.74 1744.73 160 1769.7 160C1795.67 160 1818.06 165.99 1836.88 177.98C1855.69 189.96 1869.26 205.28 1877.59 223.93V163.99H1912.55V436.71H1877.59V376.27C1868.93 394.92 1855.19 410.32 1836.38 422.47C1817.57 434.63 1795.17 440.7 1769.2 440.7C1744.56 440.7 1722.33 434.87 1702.52 423.22C1682.71 411.57 1667.22 395.08 1656.07 373.77C1644.91 352.46 1639.34 327.82 1639.34 299.85ZM1877.59 300.35C1877.59 278.37 1873.09 259.06 1864.1 242.41C1855.11 225.76 1842.87 212.94 1827.39 203.95C1811.9 194.96 1794.84 190.46 1776.19 190.46C1756.88 190.46 1739.56 194.79 1724.25 203.45C1708.93 212.11 1696.86 224.68 1688.03 241.16C1679.21 257.64 1674.8 277.21 1674.8 299.85C1674.8 322.16 1679.21 341.72 1688.03 358.54C1696.86 375.35 1708.93 388.17 1724.25 397C1739.56 405.82 1756.88 410.23 1776.19 410.23C1794.84 410.23 1811.9 405.74 1827.39 396.75C1842.87 387.76 1855.11 374.94 1864.1 358.29C1873.09 341.64 1877.59 322.33 1877.59 300.35Z" fill="white"/>
<path d="M2135.32 436.71L2064.89 326.82L1996.96 436.71H1960L2047.91 300.35L1961 163.99H2000.46L2069.88 272.38L2137.31 163.99H2173.78L2086.87 298.85L2174.77 436.71H2135.32Z" fill="white"/>
<path fill-rule="evenodd" clip-rule="evenodd" d="M519.52 120.53V448.18H418.93L297.94 288.47L265.62 245.8V299.34V448.18H162.42V120.53H108.34V448.18V510.51H162.42H265.62H297.94H425.6H466.15H519.52H585.17V448.18V120.53H519.52ZM408.8 217.48V120.53V88.2H441.12H519.52H585.17V22.26H519.52H441.12H408.8H260.9H220.35H162.42H108.34V88.2H162.42H270.3L294.79 120.53L408.8 271.01V217.48Z" fill="white"/>
</svg>
