<?xml version="1.0" encoding="UTF-8"?>
<!DOCTYPE svg PUBLIC "-//W3C//DTD SVG 1.1//EN" "http://www.w3.org/Graphics/SVG/1.1/DTD/svg11.dtd">
<!-- Creator: CorelDRAW 2021 (64-Bit) -->
<svg xmlns="http://www.w3.org/2000/svg" xml:space="preserve" width="2250px" height="540px" version="1.1" style="shape-rendering:geometricPrecision; text-rendering:geometricPrecision; image-rendering:optimizeQuality; fill-rule:evenodd; clip-rule:evenodd"
viewBox="0 0 2250 540"
 xmlns:xlink="http://www.w3.org/1999/xlink"
 xmlns:xodm="http://www.corel.com/coreldraw/odm/2003">
 <defs>
  <style type="text/css">
   <![CDATA[
    .fil1 {fill:#2779A7}
    .fil0 {fill:#2779A7;fill-rule:nonzero}
   ]]>
  </style>
 </defs>
 <g id="Layer_x0020_1">
  <metadata id="CorelCorpID_0Corel-Layer"/>
  <path class="fil0" d="M793.22 156c32.97,0 59.61,10.41 79.92,31.22 20.31,20.81 30.47,49.86 30.47,87.16l0 162.33 -69.93 0 0 -152.84c0,-21.98 -5.49,-38.88 -16.48,-50.7 -10.99,-11.82 -25.97,-17.73 -44.96,-17.73 -19.31,0 -34.54,5.91 -45.7,17.73 -11.15,11.82 -16.73,28.72 -16.73,50.7l0 152.84 -69.93 0 0 -276.71 69.93 0 0 34.46c9.32,-11.99 21.23,-21.39 35.71,-28.22 14.49,-6.83 30.39,-10.24 47.7,-10.24z"/>
  <path id="_1" class="fil0" d="M1227.27 292.36c0,9.99 -0.67,18.98 -2,26.97l-202.29 0c1.67,19.98 8.66,35.63 20.98,46.95 12.32,11.32 27.47,16.98 45.45,16.98 25.97,0 44.46,-11.15 55.44,-33.46l75.42 0c-7.99,26.64 -23.3,48.53 -45.95,65.68 -22.64,17.15 -50.44,25.72 -83.41,25.72 -26.64,0 -50.53,-5.91 -71.67,-17.73 -21.15,-11.82 -37.63,-28.55 -49.45,-50.2 -11.82,-21.64 -17.73,-46.61 -17.73,-74.92 0,-28.63 5.82,-53.78 17.48,-75.42 11.65,-21.64 27.97,-38.29 48.95,-49.95 20.97,-11.65 45.12,-17.48 72.42,-17.48 26.31,0 49.86,5.66 70.68,16.98 20.81,11.33 36.96,27.39 48.45,48.2 11.48,20.81 17.23,44.71 17.23,71.68zm-72.43 -19.98c-0.33,-17.98 -6.82,-32.38 -19.48,-43.21 -12.65,-10.82 -28.13,-16.23 -46.45,-16.23 -17.31,0 -31.88,5.25 -43.7,15.73 -11.82,10.49 -19.06,25.06 -21.73,43.71l131.36 0z"/>
  <path id="_2" class="fil0" d="M1359.63 217.44l0 133.86c0,9.32 2.25,16.06 6.74,20.23 4.5,4.16 12.07,6.24 22.73,6.24l32.46 0 0 58.94 -43.95 0c-58.94,0 -88.41,-28.64 -88.41,-85.91l0 -133.36 -32.96 0 0 -57.44 32.96 0 0 -68.43 70.43 0 0 68.43 61.93 0 0 57.44 -61.93 0z"/>
  <path id="_3" class="fil0" d="M1522.96 193.46l0 169.32c0,16.65 3.16,28.14 9.49,34.47 6.32,6.32 17.48,9.49 33.46,9.49l31.97 0 0 29.97 -37.46 0c-24.64,0 -42.96,-5.75 -54.94,-17.24 -11.99,-11.48 -17.99,-30.38 -17.99,-56.69l0 -169.32 -37.96 0 0 -29.47 37.96 0 0 -68.43 35.47 0 0 68.43 74.92 0 0 29.47 -74.92 0z"/>
  <path id="_4" class="fil0" d="M1639.34 299.85c0,-27.97 5.57,-52.53 16.73,-73.67 11.15,-21.15 26.64,-37.46 46.45,-48.95 19.81,-11.49 42.21,-17.23 67.18,-17.23 25.97,0 48.36,5.99 67.18,17.98 18.81,11.98 32.38,27.3 40.71,45.95l0 -59.94 34.96 0 0 272.72 -34.96 0 0 -60.44c-8.66,18.65 -22.4,34.05 -41.21,46.2 -18.81,12.16 -41.21,18.23 -67.18,18.23 -24.64,0 -46.87,-5.83 -66.68,-17.48 -19.81,-11.65 -35.3,-28.14 -46.45,-49.45 -11.16,-21.31 -16.73,-45.95 -16.73,-73.92zm238.25 0.5c0,-21.98 -4.5,-41.29 -13.49,-57.94 -8.99,-16.65 -21.23,-29.47 -36.71,-38.46 -15.49,-8.99 -32.55,-13.49 -51.2,-13.49 -19.31,0 -36.63,4.33 -51.94,12.99 -15.32,8.66 -27.39,21.23 -36.22,37.71 -8.82,16.48 -13.23,36.05 -13.23,58.69 0,22.31 4.41,41.87 13.23,58.69 8.83,16.81 20.9,29.63 36.22,38.46 15.31,8.82 32.63,13.23 51.94,13.23 18.65,0 35.71,-4.49 51.2,-13.48 15.48,-8.99 27.72,-21.81 36.71,-38.46 8.99,-16.65 13.49,-35.96 13.49,-57.94z"/>
  <polygon id="_5" class="fil0" points="2135.32,436.71 2064.89,326.82 1996.96,436.71 1960,436.71 2047.91,300.35 1961,163.99 2000.46,163.99 2069.88,272.38 2137.31,163.99 2173.78,163.99 2086.87,298.85 2174.77,436.71 "/>
  <path class="fil1" d="M519.52 120.53l0 327.65 -100.59 0 -120.99 -159.71 -32.32 -42.67 0 53.54 0 148.84 -103.2 0 0 -327.65 -54.08 0 0 327.65 0 62.33 54.08 0 103.2 0 32.32 0 127.66 0 40.55 0 53.37 0 65.65 0 0 -62.33 0 -327.65 -65.65 0zm-110.72 96.95l0 -96.95 0 -32.33 32.32 0 78.4 0 65.65 0 0 -65.94 -65.65 0 -78.4 0 -32.32 0 -147.9 0 -40.55 0 -57.93 0 -54.08 0 0 65.94 54.08 0 107.88 0 24.49 32.33 114.01 150.48 0 -53.53z"/>
 </g>
</svg>
